<svg width="200" height="1132" xmlns="http://www.w3.org/2000/svg" xmlns:xlink="http://www.w3.org/1999/xlink">
<text x="6" y="20" font-size="14" fill="white">[25.665556, 23.409444]</text>
<text x="6" y="240" font-size="11" fill="white">0.055</text>
<text x="6" y="254" font-size="11" fill="white">0.173</text>
<text x="6" y="268" font-size="11" fill="white">0.084</text>
<text x="6" y="282" font-size="11" fill="white">-0.179</text>
<text x="6" y="296" font-size="11" fill="white">-0.179</text>
<text x="6" y="310" font-size="11" fill="white">-0.025</text>
<text x="6" y="324" font-size="11" fill="white">-0.098</text>
<text x="6" y="338" font-size="11" fill="white">0.094</text>
<text x="6" y="352" font-size="11" fill="white">-0.207</text>
<text x="6" y="366" font-size="11" fill="white">-0.166</text>
<text x="6" y="380" font-size="11" fill="white">0.160</text>
<text x="6" y="394" font-size="11" fill="white">0.125</text>
<text x="6" y="408" font-size="11" fill="white">-0.080</text>
<text x="6" y="422" font-size="11" fill="white">-0.103</text>
<text x="6" y="436" font-size="11" fill="white">0.136</text>
<text x="6" y="450" font-size="11" fill="white">0.114</text>
<text x="6" y="464" font-size="11" fill="white">0.160</text>
<text x="6" y="478" font-size="11" fill="white">0.236</text>
<text x="6" y="492" font-size="11" fill="white">0.059</text>
<text x="6" y="506" font-size="11" fill="white">0.109</text>
<text x="6" y="520" font-size="11" fill="white">0.009</text>
<text x="6" y="534" font-size="11" fill="white">-0.236</text>
<text x="6" y="548" font-size="11" fill="white">-0.067</text>
<text x="6" y="562" font-size="11" fill="white">0.063</text>
<text x="6" y="576" font-size="11" fill="white">-0.130</text>
<text x="6" y="590" font-size="11" fill="white">-0.136</text>
<text x="6" y="604" font-size="11" fill="white">-0.200</text>
<text x="6" y="618" font-size="11" fill="white">-0.063</text>
<text x="6" y="632" font-size="11" fill="white">0.221</text>
<text x="6" y="646" font-size="11" fill="white">0.055</text>
<text x="6" y="660" font-size="11" fill="white">0.055</text>
<text x="6" y="674" font-size="11" fill="white">0.033</text>
<text x="6" y="688" font-size="11" fill="white">-0.103</text>
<text x="6" y="702" font-size="11" fill="white">-0.154</text>
<text x="6" y="716" font-size="11" fill="white">-0.148</text>
<text x="6" y="730" font-size="11" fill="white">-0.020</text>
<text x="6" y="744" font-size="11" fill="white">-0.229</text>
<text x="6" y="758" font-size="11" fill="white">-0.009</text>
<text x="6" y="772" font-size="11" fill="white">-0.042</text>
<text x="6" y="786" font-size="11" fill="white">-0.084</text>
<text x="6" y="800" font-size="11" fill="white">0.252</text>
<text x="6" y="814" font-size="11" fill="white">-0.109</text>
<text x="6" y="828" font-size="11" fill="white">-0.080</text>
<text x="6" y="842" font-size="11" fill="white">0.022</text>
<text x="6" y="856" font-size="11" fill="white">-0.038</text>
<text x="6" y="870" font-size="11" fill="white">0.003</text>
<text x="6" y="884" font-size="11" fill="white">-0.052</text>
<text x="6" y="898" font-size="11" fill="white">0.033</text>
<text x="6" y="912" font-size="11" fill="white">-0.142</text>
<text x="6" y="926" font-size="11" fill="white">-0.048</text>
<text x="6" y="940" font-size="11" fill="white">-0.098</text>
<text x="6" y="954" font-size="11" fill="white">0.033</text>
<text x="6" y="968" font-size="11" fill="white">0.229</text>
<text x="6" y="982" font-size="11" fill="white">-0.020</text>
<text x="6" y="996" font-size="11" fill="white">0.067</text>
<text x="6" y="1010" font-size="11" fill="white">0.071</text>
<text x="6" y="1024" font-size="11" fill="white">-0.052</text>
<text x="6" y="1038" font-size="11" fill="white">-0.007</text>
<text x="6" y="1052" font-size="11" fill="white">-0.089</text>
<text x="6" y="1066" font-size="11" fill="white">-0.173</text>
<text x="6" y="1080" font-size="11" fill="white">-0.186</text>
<text x="6" y="1094" font-size="11" fill="white">-0.173</text>
<text x="6" y="1108" font-size="11" fill="white">-0.063</text>
<text x="6" y="1122" font-size="11" fill="white">-0.098</text>
<polyline points="119.04,238.00 132.29,252.00 122.30,266.00 92.57,280.00 92.57,294.00 110.02,308.00 101.70,322.00 123.35,336.00 89.46,350.00 94.04,364.00 130.85,378.00 126.85,392.00 103.81,406.00 101.14,420.00 128.13,434.00 125.63,448.00 130.85,462.00 139.47,476.00 119.47,490.00 125.04,504.00 113.80,518.00 86.13,532.00 105.24,546.00 119.91,560.00 98.12,574.00 97.47,588.00 90.26,602.00 105.69,616.00 137.78,630.00 119.04,644.00 119.04,658.00 116.47,672.00 101.14,686.00 95.45,700.00 96.14,714.00 110.55,728.00 86.98,742.00 111.80,756.00 108.11,770.00 103.30,784.00 141.22,798.00 100.56,812.00 103.81,826.00 115.30,840.00 108.46,854.00 113.14,868.00 106.96,882.00 116.47,896.00 96.81,910.00 107.36,924.00 101.70,938.00 116.47,952.00 138.62,966.00 110.55,980.00 120.36,994.00 120.82,1008.00 106.96,1022.00 111.96,1036.00 102.78,1050.00 93.31,1064.00 91.81,1078.00 93.31,1092.00 105.69,1106.00 101.70,1120.00" fill="none" stroke="white" stroke-width="1.2" />
</svg>