<svg width="200" height="932" xmlns="http://www.w3.org/2000/svg">
<text x="100.0" y="20" font-size="14" fill="black" text-anchor="middle">nyc</text>
<text x="6" y="40" font-size="11" fill="black">0.098</text>
<text x="6" y="54" font-size="11" fill="black">-0.207</text>
<text x="6" y="68" font-size="11" fill="black">0.089</text>
<text x="6" y="82" font-size="11" fill="black">-0.154</text>
<text x="6" y="96" font-size="11" fill="black">0.005</text>
<text x="6" y="110" font-size="11" fill="black">-0.200</text>
<text x="6" y="124" font-size="11" fill="black">0.059</text>
<text x="6" y="138" font-size="11" fill="black">-0.025</text>
<text x="6" y="152" font-size="11" fill="black">-0.252</text>
<text x="6" y="166" font-size="11" fill="black">0.018</text>
<text x="6" y="180" font-size="11" fill="black">-0.027</text>
<text x="6" y="194" font-size="11" fill="black">0.059</text>
<text x="6" y="208" font-size="11" fill="black">-0.002</text>
<text x="6" y="222" font-size="11" fill="black">-0.125</text>
<text x="6" y="236" font-size="11" fill="black">-0.207</text>
<text x="6" y="250" font-size="11" fill="black">-0.125</text>
<text x="6" y="264" font-size="11" fill="black">0.154</text>
<text x="6" y="278" font-size="11" fill="black">0.229</text>
<text x="6" y="292" font-size="11" fill="black">0.010</text>
<text x="6" y="306" font-size="11" fill="black">0.038</text>
<text x="6" y="320" font-size="11" fill="black">0.119</text>
<text x="6" y="334" font-size="11" fill="black">0.098</text>
<text x="6" y="348" font-size="11" fill="black">-0.186</text>
<text x="6" y="362" font-size="11" fill="black">0.059</text>
<text x="6" y="376" font-size="11" fill="black">0.094</text>
<text x="6" y="390" font-size="11" fill="black">0.094</text>
<text x="6" y="404" font-size="11" fill="black">0.012</text>
<text x="6" y="418" font-size="11" fill="black">-0.038</text>
<text x="6" y="432" font-size="11" fill="black">0.142</text>
<text x="6" y="446" font-size="11" fill="black">-0.025</text>
<text x="6" y="460" font-size="11" fill="black">-0.009</text>
<text x="6" y="474" font-size="11" fill="black">-0.020</text>
<text x="6" y="488" font-size="11" fill="black">-0.038</text>
<text x="6" y="502" font-size="11" fill="black">-0.042</text>
<text x="6" y="516" font-size="11" fill="black">0.119</text>
<text x="6" y="530" font-size="11" fill="black">-0.214</text>
<text x="6" y="544" font-size="11" fill="black">-0.207</text>
<text x="6" y="558" font-size="11" fill="black">-0.103</text>
<text x="6" y="572" font-size="11" fill="black">0.063</text>
<text x="6" y="586" font-size="11" fill="black">-0.252</text>
<text x="6" y="600" font-size="11" fill="black">-0.193</text>
<text x="6" y="614" font-size="11" fill="black">-0.067</text>
<text x="6" y="628" font-size="11" fill="black">0.018</text>
<text x="6" y="642" font-size="11" fill="black">-0.098</text>
<text x="6" y="656" font-size="11" fill="black">0.114</text>
<text x="6" y="670" font-size="11" fill="black">0.207</text>
<text x="6" y="684" font-size="11" fill="black">-0.098</text>
<text x="6" y="698" font-size="11" fill="black">0.136</text>
<text x="6" y="712" font-size="11" fill="black">0.200</text>
<text x="6" y="726" font-size="11" fill="black">0.033</text>
<text x="6" y="740" font-size="11" fill="black">-0.119</text>
<text x="6" y="754" font-size="11" fill="black">0.075</text>
<text x="6" y="768" font-size="11" fill="black">-0.221</text>
<text x="6" y="782" font-size="11" fill="black">-0.022</text>
<text x="6" y="796" font-size="11" fill="black">0.221</text>
<text x="6" y="810" font-size="11" fill="black">-0.125</text>
<text x="6" y="824" font-size="11" fill="black">0.109</text>
<text x="6" y="838" font-size="11" fill="black">0.010</text>
<text x="6" y="852" font-size="11" fill="black">0.114</text>
<text x="6" y="866" font-size="11" fill="black">-0.059</text>
<text x="6" y="880" font-size="11" fill="black">0.022</text>
<text x="6" y="894" font-size="11" fill="black">-0.089</text>
<text x="6" y="908" font-size="11" fill="black">-0.103</text>
<text x="6" y="922" font-size="11" fill="black">0.035</text>
<polyline points="123.90,38.00 89.46,52.00 122.82,66.00 95.45,80.00 113.36,94.00 90.26,108.00 119.47,122.00 110.02,136.00 84.38,150.00 114.81,164.00 109.74,178.00 119.47,192.00 112.63,206.00 98.75,220.00 89.46,234.00 98.75,248.00 130.15,262.00 138.62,276.00 113.97,290.00 117.14,304.00 126.23,318.00 123.90,332.00 91.81,346.00 119.47,360.00 123.35,374.00 123.35,388.00 114.16,402.00 108.46,416.00 128.79,430.00 110.02,444.00 111.80,458.00 110.55,472.00 108.46,486.00 108.11,500.00 126.23,514.00 88.65,528.00 89.46,542.00 101.14,556.00 119.91,570.00 84.38,584.00 91.04,598.00 105.24,612.00 114.81,626.00 101.70,640.00 125.63,654.00 136.14,668.00 101.70,682.00 128.13,696.00 135.34,710.00 116.47,724.00 99.37,738.00 121.30,752.00 87.82,766.00 110.30,780.00 137.78,794.00 98.75,808.00 125.04,822.00 113.97,836.00 125.63,850.00 106.13,864.00 115.30,878.00 102.78,892.00 101.14,906.00 116.80,920.00" fill="none" stroke="black" stroke-width="1.2" />
</svg>